<?xml version="1.0" encoding="utf-8"?>
<!-- Generator: Adobe Illustrator 17.0.0, SVG Export Plug-In . SVG Version: 6.00 Build 0)  -->
<!DOCTYPE svg PUBLIC "-//W3C//DTD SVG 1.1//EN" "http://www.w3.org/Graphics/SVG/1.1/DTD/svg11.dtd">
<svg version="1.1" id="Capa_1" xmlns="http://www.w3.org/2000/svg" xmlns:xlink="http://www.w3.org/1999/xlink" x="0px" y="0px"
	 width="95.5px" height="90px" viewBox="0 0 95.5 90" enable-background="new 0 0 95.5 90" xml:space="preserve">
<path fill="none" d="M312.276,353.891"/>
<path fill="none" d="M312.276,353.891"/>
<path fill="none" d="M312.276,353.891"/>
<path fill="none" d="M312.276,353.891"/>
<path fill="none" d="M312.276,353.891"/>
<path fill="none" d="M312.276,353.891"/>
<path fill="none" d="M312.276,353.891"/>
<path fill="none" d="M312.276,353.891"/>
<path fill="none" d="M312.276,353.891"/>
<path fill="none" d="M312.276,353.891"/>
<path fill="none" d="M312.276,353.891"/>
<path fill="none" d="M312.276,353.891"/>
<g>
	<path fill="#FFFFFF" d="M22.5,88.842c11.825,0,21.408-9.58,21.408-21.398c0-11.819-9.583-21.4-21.408-21.4s-21.41,9.581-21.41,21.4
		C1.09,79.262,10.675,88.842,22.5,88.842"/>
	<path fill="#BED73D" d="M22.5,46.007c-11.853,0-21.495,9.644-21.495,21.496S10.647,89,22.5,89s21.495-9.645,21.495-21.497
		S34.353,46.007,22.5,46.007 M22.5,47.22c11.202,0,20.283,9.08,20.283,20.283c0,11.201-9.081,20.283-20.283,20.283
		S2.217,78.704,2.217,67.503C2.217,56.3,11.298,47.22,22.5,47.22"/>
	<path fill="#6F8F9E" d="M22.83,64.719c-1.547,0-2.799-1.251-2.799-2.799c0-1.546,1.252-2.799,2.799-2.799
		c1.544,0,2.798,1.253,2.798,2.799C25.628,63.468,24.374,64.719,22.83,64.719 M22.83,57.248c-2.581,0-4.671,2.09-4.671,4.672
		c0,2.582,2.091,4.672,4.671,4.672c2.579,0,4.672-2.09,4.672-4.672S25.409,57.248,22.83,57.248"/>
	<path fill="#6452A2" d="M22.83,51.155c-5.947,0-10.766,4.82-10.766,10.765c0,5.947,4.819,10.768,10.766,10.768
		s10.767-4.82,10.767-10.768c0-0.503-0.409-0.913-0.913-0.913s-0.913,0.41-0.913,0.913c0,4.939-4.002,8.944-8.94,8.944
		c-4.939,0-8.942-4.005-8.942-8.944c0-4.938,4.002-8.942,8.942-8.942c0.504,0,0.911-0.406,0.911-0.913
		C23.741,51.563,23.334,51.155,22.83,51.155"/>
	<path fill="#BED73D" d="M22.83,54.179c-4.277,0-7.744,3.465-7.744,7.741s3.467,7.745,7.744,7.745v-0.001
		c0.516,0,0.937-0.42,0.937-0.938c0-0.517-0.421-0.934-0.937-0.934c-3.243,0-5.87-2.63-5.87-5.873c0-3.242,2.627-5.87,5.87-5.87
		c3.241,0,5.87,2.628,5.87,5.87h0.002c0,0.518,0.418,0.936,0.936,0.936c0.517,0,0.937-0.418,0.937-0.936h-0.001
		C30.573,57.644,27.106,54.179,22.83,54.179"/>
	<path fill="#6452A2" d="M9.884,78.671c-0.985,0-1.652-0.664-1.652-1.559c0-0.898,0.667-1.563,1.652-1.563
		c0.351,0,0.671,0.103,0.944,0.264l-0.214,0.594c-0.222-0.122-0.473-0.202-0.722-0.202c-0.564,0-0.915,0.348-0.915,0.908
		s0.351,0.905,0.915,0.905c0.249,0,0.528-0.08,0.754-0.221l0.211,0.594C10.594,78.563,10.231,78.671,9.884,78.671"/>
	<path fill="#6452A2" d="M13.018,76.177c-0.478,0-0.799,0.392-0.799,0.936c0,0.54,0.321,0.936,0.799,0.936
		c0.479,0,0.801-0.396,0.801-0.936C13.818,76.568,13.497,76.177,13.018,76.177 M13.006,78.671c-0.937,0-1.534-0.672-1.534-1.559
		c0-0.892,0.627-1.563,1.563-1.563c0.932,0,1.533,0.672,1.533,1.563C14.568,77.999,13.938,78.671,13.006,78.671"/>
	<polygon fill="#6452A2" points="17.987,78.679 16.164,77.041 16.164,78.621 15.463,78.621 15.463,75.557 15.558,75.542 
		17.355,77.166 17.355,75.6 18.057,75.6 18.057,78.665 	"/>
	<polygon fill="#6452A2" points="19.778,76.243 19.778,76.908 20.818,76.908 20.818,77.524 19.778,77.524 19.778,78.621 
		19.078,78.621 19.078,75.6 20.991,75.6 20.991,76.243 	"/>
	<rect x="21.79" y="75.6" fill="#6452A2" width="0.701" height="3.021"/>
	<path fill="#6452A2" d="M24.633,76.812l-0.301,0.726h0.598L24.633,76.812z M25.379,78.621l-0.227-0.548h-1.044l-0.226,0.548h-0.715
		l1.424-3.046h0.095l1.422,3.046H25.379z"/>
	<polygon fill="#6452A2" points="29.304,78.679 27.481,77.041 27.481,78.621 26.78,78.621 26.78,75.557 26.875,75.542 
		28.673,77.166 28.673,75.6 29.374,75.6 29.374,78.665 	"/>
	<polygon fill="#6452A2" points="31.251,77.982 32.698,77.982 32.698,78.621 30.134,78.621 30.113,78.549 31.61,76.243 
		30.221,76.243 30.221,75.6 32.728,75.6 32.748,75.677 	"/>
	<path fill="#6452A2" d="M34.736,76.812l-0.301,0.726h0.598L34.736,76.812z M35.482,78.621l-0.227-0.548h-1.044l-0.227,0.548h-0.713
		l1.423-3.046h0.095l1.423,3.046H35.482z"/>
	<path fill="#6F8F9E" d="M14.159,79.915c-0.726,0-1.245,0.584-1.245,1.347c0,0.76,0.52,1.346,1.245,1.346
		c0.727,0,1.246-0.586,1.246-1.346C15.405,80.499,14.886,79.915,14.159,79.915 M14.151,82.812c-0.829,0-1.489-0.655-1.489-1.55
		s0.672-1.557,1.505-1.557c0.829,0,1.488,0.662,1.488,1.557S14.984,82.812,14.151,82.812"/>
	<polygon fill="#6F8F9E" points="19.476,82.815 17.463,80.252 17.463,82.772 17.236,82.772 17.236,79.716 17.29,79.705 
		19.286,82.24 19.286,79.749 19.517,79.749 19.517,82.809 	"/>
	<polygon fill="#6F8F9E" points="21.236,82.771 21.236,79.749 21.467,79.749 21.467,82.562 22.944,82.562 22.944,82.771 	"/>
	<rect x="24.354" y="79.749" fill="#6F8F9E" width="0.229" height="3.022"/>
	<polygon fill="#6F8F9E" points="28.543,82.815 26.531,80.252 26.531,82.772 26.304,82.772 26.304,79.716 26.357,79.705 
		28.353,82.24 28.353,79.749 28.585,79.749 28.585,82.809 	"/>
	<polygon fill="#6F8F9E" points="30.305,82.771 30.305,79.749 32.012,79.749 32.012,79.955 30.535,79.955 30.535,81.134 
		31.867,81.134 31.867,81.34 30.535,81.34 30.535,82.562 32.012,82.562 32.012,82.771 	"/>
</g>
<path fill="none" d="M312.276,353.891"/>
<path fill="none" d="M312.276,353.891"/>
<path fill="none" d="M312.276,353.891"/>
<path fill="none" d="M312.276,353.891"/>
<path fill="none" d="M312.276,353.891"/>
<path fill="none" d="M312.276,353.891"/>
<path fill="none" d="M312.276,353.891"/>
<path fill="none" d="M312.276,353.891"/>
<path fill="none" d="M312.276,353.891"/>
<path fill="none" d="M312.276,353.891"/>
<path fill="none" d="M312.276,353.891"/>
<path fill="none" d="M312.276,353.891"/>
<g>
	<path fill="#FFFFFF" d="M22.469,43.897c11.825,0,21.409-9.58,21.409-21.399c0-11.818-9.584-21.399-21.409-21.399
		c-11.824,0-21.408,9.581-21.408,21.399C1.061,34.317,10.645,43.897,22.469,43.897"/>
	<path fill="#B6B8BA" d="M22.501,1C10.647,1,1.005,10.643,1.005,22.497c0,11.852,9.643,21.496,21.496,21.496
		c11.852,0,21.494-9.644,21.494-21.496C43.995,10.643,34.353,1,22.501,1 M22.501,2.213c11.201,0,20.283,9.081,20.283,20.284
		c0,11.201-9.082,20.283-20.283,20.283c-11.202,0-20.283-9.082-20.283-20.283C2.218,11.293,11.299,2.213,22.501,2.213"/>
	<path fill="#636466" d="M22.83,19.712c-1.546,0-2.799-1.251-2.799-2.798c0-1.546,1.253-2.8,2.799-2.8s2.8,1.253,2.8,2.8
		C25.63,18.46,24.376,19.712,22.83,19.712 M22.83,12.241c-2.58,0-4.672,2.09-4.672,4.672s2.092,4.672,4.672,4.672
		c2.579,0,4.671-2.09,4.671-4.672C27.501,14.332,25.409,12.241,22.83,12.241"/>
	<path fill="#414042" d="M22.83,6.147c-5.946,0-10.767,4.82-10.767,10.767c0,5.946,4.82,10.766,10.767,10.766
		s10.767-4.82,10.767-10.766c0-0.504-0.41-0.914-0.912-0.914c-0.504,0-0.912,0.41-0.912,0.914c0,4.938-4.006,8.943-8.942,8.943
		c-4.939,0-8.941-4.004-8.941-8.943s4.002-8.943,8.941-8.943c0.505,0,0.913-0.407,0.913-0.912
		C23.743,6.556,23.335,6.147,22.83,6.147"/>
	<path fill="#939598" d="M22.83,9.17c-4.277,0-7.744,3.467-7.744,7.743c0,4.275,3.467,7.744,7.744,7.744v-0.001
		c0.519,0,0.937-0.419,0.937-0.936c0-0.516-0.418-0.935-0.937-0.935c-3.243,0-5.869-2.63-5.869-5.872s2.626-5.871,5.869-5.871
		c3.241,0,5.87,2.629,5.87,5.871h0.002c0,0.516,0.42,0.936,0.936,0.936c0.518,0,0.938-0.419,0.938-0.936h-0.002
		C30.573,12.637,27.106,9.17,22.83,9.17"/>
	<path fill="#414042" d="M9.885,33.664c-0.986,0-1.653-0.665-1.653-1.559c0-0.898,0.667-1.563,1.653-1.563
		c0.351,0,0.672,0.104,0.943,0.264L10.614,31.4c-0.223-0.124-0.475-0.202-0.722-0.202c-0.564,0-0.915,0.347-0.915,0.907
		c0,0.56,0.351,0.906,0.915,0.906c0.247,0,0.528-0.081,0.754-0.221l0.211,0.593C10.594,33.556,10.23,33.664,9.885,33.664"/>
	<path fill="#414042" d="M13.019,31.169c-0.479,0-0.8,0.392-0.8,0.936c0,0.54,0.321,0.936,0.8,0.936s0.799-0.396,0.799-0.936
		C13.817,31.561,13.497,31.169,13.019,31.169 M13.006,33.664c-0.936,0-1.533-0.672-1.533-1.559c0-0.891,0.626-1.563,1.562-1.563
		c0.932,0,1.534,0.672,1.534,1.563C14.569,32.992,13.938,33.664,13.006,33.664"/>
	<polygon fill="#414042" points="17.986,33.672 16.165,32.036 16.165,33.614 15.464,33.614 15.464,30.55 15.559,30.535 
		17.355,32.159 17.355,30.591 18.058,30.591 18.058,33.658 	"/>
	<polygon fill="#414042" points="19.779,31.235 19.779,31.902 20.818,31.902 20.818,32.518 19.779,32.518 19.779,33.614 
		19.078,33.614 19.078,30.591 20.991,30.591 20.991,31.235 	"/>
	<rect x="21.79" y="30.591" fill="#414042" width="0.7" height="3.022"/>
	<path fill="#414042" d="M24.633,31.804l-0.301,0.725h0.597L24.633,31.804z M25.378,33.614l-0.227-0.548h-1.042l-0.227,0.548h-0.715
		l1.423-3.046h0.094l1.424,3.046H25.378z"/>
	<polygon fill="#414042" points="29.304,33.672 27.481,32.036 27.481,33.614 26.78,33.614 26.78,30.55 26.874,30.535 28.673,32.159 
		28.673,30.591 29.374,30.591 29.374,33.658 	"/>
	<polygon fill="#414042" points="31.251,32.975 32.698,32.975 32.698,33.614 30.134,33.614 30.112,33.541 31.61,31.235 
		30.222,31.235 30.222,30.591 32.728,30.591 32.747,30.67 	"/>
	<path fill="#414042" d="M34.735,31.804l-0.301,0.725h0.598L34.735,31.804z M35.483,33.614l-0.229-0.548h-1.043l-0.227,0.548h-0.713
		l1.422-3.046h0.096l1.422,3.046H35.483z"/>
	<path fill="#636466" d="M14.16,34.907c-0.727,0-1.246,0.586-1.246,1.348c0,0.758,0.52,1.344,1.246,1.344s1.245-0.586,1.245-1.344
		C15.405,35.493,14.886,34.907,14.16,34.907 M14.151,37.806c-0.829,0-1.488-0.656-1.488-1.55c0-0.896,0.672-1.558,1.506-1.558
		c0.827,0,1.486,0.662,1.486,1.558C15.655,37.15,14.984,37.806,14.151,37.806"/>
	<polygon fill="#636466" points="19.476,37.81 17.463,35.246 17.463,37.765 17.236,37.765 17.236,34.709 17.29,34.698 
		19.286,37.232 19.286,34.742 19.518,34.742 19.518,37.802 	"/>
	<polygon fill="#636466" points="21.237,37.764 21.237,34.742 21.468,34.742 21.468,37.555 22.943,37.555 22.943,37.764 	"/>
	<rect x="24.354" y="34.742" fill="#636466" width="0.231" height="3.022"/>
	<polygon fill="#636466" points="28.544,37.81 26.53,35.246 26.53,37.765 26.304,37.765 26.304,34.709 26.358,34.698 28.354,37.232 
		28.354,34.742 28.583,34.742 28.583,37.802 	"/>
	<polygon fill="#636466" points="30.304,37.764 30.304,34.742 32.013,34.742 32.013,34.949 30.534,34.949 30.534,36.127 
		31.868,36.127 31.868,36.334 30.534,36.334 30.534,37.555 32.013,37.555 32.013,37.764 	"/>
</g>
<path fill="none" d="M312.276,353.891"/>
<path fill="none" d="M312.276,353.891"/>
<path fill="none" d="M312.276,353.891"/>
<path fill="none" d="M312.276,353.891"/>
<path fill="none" d="M312.276,353.891"/>
<path fill="none" d="M312.276,353.891"/>
<path fill="none" d="M312.276,353.891"/>
<path fill="none" d="M312.276,353.891"/>
<path fill="none" d="M312.276,353.891"/>
<path fill="none" d="M312.276,353.891"/>
<g>
	<g>
		<g>
			<path fill="#2F2F2F" d="M93.386,47.117V87.81H52.677V47.117H93.05 M94.55,46.02H51.427v42.846H94.55V46.02L94.55,46.02z"/>
		</g>
	</g>
	<g>
		<rect x="52.677" y="64.101" fill="#ED8004" width="40.708" height="23.708"/>
	</g>
	<g>
		<rect x="52.677" y="47.117" fill="#FFFFFF" width="40.708" height="16.984"/>
	</g>
	<g>
		<g>
			<polygon fill="#FFFFFF" points="74.907,69.56 73.073,72.81 71.511,70.456 69.74,71.623 72.407,76.373 78.115,76.373 
				78.115,74.227 75.261,74.185 77.115,71.102 			"/>
		</g>
		<g>
			<polygon fill="#FFFFFF" points="69.323,71.852 72.073,76.643 69.323,81.518 67.365,80.352 69.636,76.643 67.448,73.06 			"/>
		</g>
		<g>
			<path fill="#FFFFFF" d="M77.177,82.331l-2.146,1.458l-2.021-3.458l-1.354,2.562l-1.917-1.229l2.688-4.855
				c0,0,5.281,0.193,5.688,0c0.406-0.193,2.208-1.312,0.562-4.479c-1.646-3.167-5-4.333-8.354-3.312
				c-3.354,1.021-5.203,6.236-4.625,9.292c0.583,3.083,2.396,5.75,6.208,6.396c3.812,0.646,6.083-2.042,6.083-2.042l0.604,0.812
				c0,0-2.104,2.729-6.75,2.354s-7.583-3.896-7.958-7.417c-0.5-2.792,0.292-8.042,5.854-10.375s10.833,2.438,11.479,5.708
				c0.646,3.271-0.701,4.815-1.812,5.25c-0.958,0.375-4.125,0.229-4.125,0.229L77.177,82.331z"/>
		</g>
	</g>
	<g>
		<path fill="#2A2A2A" d="M60.266,53.93l0.524,0.133c-0.11,0.431-0.308,0.759-0.594,0.985c-0.285,0.227-0.635,0.339-1.047,0.339
			c-0.428,0-0.774-0.087-1.042-0.261c-0.269-0.174-0.472-0.426-0.611-0.755c-0.14-0.33-0.21-0.685-0.21-1.062
			c0-0.413,0.079-0.773,0.237-1.08c0.157-0.308,0.382-0.541,0.673-0.7c0.291-0.16,0.611-0.239,0.961-0.239
			c0.396,0,0.729,0.101,1,0.303c0.271,0.201,0.459,0.485,0.565,0.852l-0.517,0.121c-0.092-0.288-0.226-0.498-0.4-0.63
			c-0.175-0.131-0.395-0.197-0.659-0.197c-0.305,0-0.56,0.073-0.764,0.219c-0.205,0.146-0.349,0.343-0.432,0.589
			s-0.124,0.499-0.124,0.761c0,0.337,0.049,0.631,0.147,0.883c0.098,0.251,0.251,0.439,0.458,0.563s0.432,0.187,0.673,0.187
			c0.294,0,0.543-0.085,0.746-0.254C60.056,54.515,60.194,54.264,60.266,53.93z"/>
		<path fill="#2A2A2A" d="M61.277,53.39c0-0.658,0.177-1.173,0.53-1.545c0.353-0.372,0.809-0.559,1.367-0.559
			c0.366,0,0.696,0.087,0.99,0.262c0.293,0.176,0.518,0.419,0.672,0.731c0.153,0.313,0.23,0.668,0.23,1.064
			c0,0.401-0.081,0.761-0.243,1.078s-0.392,0.558-0.689,0.721c-0.297,0.163-0.618,0.244-0.962,0.244c-0.373,0-0.707-0.09-1.001-0.27
			c-0.293-0.181-0.516-0.427-0.667-0.738S61.277,53.738,61.277,53.39z M61.818,53.398c0,0.478,0.128,0.854,0.385,1.129
			c0.257,0.274,0.579,0.412,0.967,0.412c0.395,0,0.72-0.139,0.975-0.416c0.255-0.278,0.383-0.672,0.383-1.182
			c0-0.322-0.055-0.604-0.164-0.845c-0.109-0.241-0.269-0.428-0.479-0.56c-0.21-0.133-0.445-0.199-0.707-0.199
			c-0.371,0-0.69,0.128-0.958,0.383S61.818,52.801,61.818,53.398z"/>
		<path fill="#2A2A2A" d="M65.738,55.32v-3.963h0.538l2.081,3.111v-3.111h0.503v3.963h-0.538l-2.081-3.114v3.114H65.738z"/>
		<path fill="#2A2A2A" d="M69.768,55.32v-3.963h2.674v0.468h-2.149v1.228h1.86v0.468h-1.86v1.8H69.768z"/>
		<path fill="#2A2A2A" d="M73.214,55.32v-3.963h0.524v3.963H73.214z"/>
		<path fill="#2A2A2A" d="M74.227,55.32l1.521-3.963h0.565l1.622,3.963h-0.598l-0.462-1.2h-1.657l-0.436,1.2H74.227z M75.371,53.693
			h1.344L76.3,52.595c-0.126-0.334-0.22-0.607-0.281-0.822c-0.051,0.254-0.122,0.507-0.214,0.757L75.371,53.693z"/>
		<path fill="#2A2A2A" d="M78.349,55.32v-3.963h0.538l2.081,3.111v-3.111h0.503v3.963h-0.538l-2.081-3.114v3.114H78.349z"/>
		<path fill="#2A2A2A" d="M82.036,55.32v-0.486l2.03-2.538c0.145-0.181,0.281-0.338,0.411-0.471h-2.211v-0.468h2.839v0.468
			l-2.226,2.749l-0.24,0.278h2.53v0.468H82.036z"/>
		<path fill="#2A2A2A" d="M85.3,55.32l1.521-3.963h0.565l1.622,3.963h-0.598l-0.462-1.2h-1.657l-0.436,1.2H85.3z M86.444,53.693
			h1.344l-0.414-1.098c-0.126-0.334-0.22-0.607-0.281-0.822c-0.051,0.254-0.122,0.507-0.214,0.757L86.444,53.693z"/>
	</g>
	<g>
		<path fill="#2A2A2A" d="M61.386,60.351v-3.963h2.866v0.468h-2.341v1.214h2.192v0.465h-2.192v1.349h2.433v0.468H61.386z"/>
		<path fill="#2A2A2A" d="M65.063,60.351v-3.963h0.538l2.081,3.111v-3.111h0.503v3.963h-0.538l-2.081-3.114v3.114H65.063z"/>
		<path fill="#2A2A2A" d="M70.584,60.351v-3.963h0.524v3.495h1.952v0.468H70.584z"/>
		<path fill="#2A2A2A" d="M73.774,60.351v-3.963h0.524v3.963H73.774z"/>
		<path fill="#2A2A2A" d="M75.217,60.351v-3.963h0.538l2.081,3.111v-3.111h0.503v3.963h-0.538l-2.081-3.114v3.114H75.217z"/>
		<path fill="#2A2A2A" d="M79.231,60.351v-3.963h2.866v0.468h-2.341v1.214h2.192v0.465h-2.192v1.349h2.433v0.468H79.231z"/>
		<path fill="#2A2A2A" d="M82.479,60.351l1.521-3.963h0.565l1.622,3.963h-0.598l-0.462-1.2h-1.657l-0.436,1.2H82.479z
			 M83.623,58.724h1.344l-0.414-1.098c-0.126-0.334-0.22-0.607-0.281-0.822c-0.051,0.254-0.122,0.507-0.214,0.757L83.623,58.724z"/>
	</g>
</g>
<g>
	<g>
		<g>
			<path fill="#2F2F2F" d="M93.386,2.172v40.693H52.677V2.172H93.05 M94.55,1.075H51.427v42.846H94.55V1.075L94.55,1.075z"/>
		</g>
	</g>
	<g>
		<rect x="52.677" y="19.156" fill="#939598" width="40.708" height="23.708"/>
	</g>
	<g>
		<rect x="52.677" y="2.172" fill="#FFFFFF" width="40.708" height="16.984"/>
	</g>
	<g>
		<g>
			<polygon fill="#FFFFFF" points="74.907,24.615 73.073,27.865 71.511,25.511 69.74,26.678 72.407,31.428 78.115,31.428 
				78.115,29.282 75.261,29.24 77.115,26.157 			"/>
		</g>
		<g>
			<polygon fill="#FFFFFF" points="69.323,26.907 72.073,31.698 69.323,36.573 67.365,35.407 69.636,31.698 67.448,28.115 			"/>
		</g>
		<g>
			<path fill="#FFFFFF" d="M77.177,37.386l-2.146,1.458l-2.021-3.458l-1.354,2.562l-1.917-1.229l2.688-4.855
				c0,0,5.281,0.193,5.688,0c0.406-0.193,2.208-1.312,0.562-4.479c-1.646-3.167-5-4.333-8.354-3.312
				c-3.354,1.021-5.203,6.236-4.625,9.292c0.583,3.083,2.396,5.75,6.208,6.396c3.812,0.646,6.083-2.042,6.083-2.042l0.604,0.812
				c0,0-2.104,2.729-6.75,2.354s-7.583-3.896-7.958-7.417c-0.5-2.792,0.292-8.042,5.854-10.375s10.833,2.438,11.479,5.708
				s-0.701,4.815-1.812,5.25c-0.958,0.375-4.125,0.229-4.125,0.229L77.177,37.386z"/>
		</g>
	</g>
	<g>
		<path fill="#414042" d="M60.266,8.985l0.524,0.133c-0.11,0.431-0.308,0.759-0.594,0.985c-0.285,0.227-0.635,0.339-1.047,0.339
			c-0.428,0-0.774-0.087-1.042-0.261c-0.269-0.174-0.472-0.426-0.611-0.755c-0.14-0.33-0.21-0.685-0.21-1.062
			c0-0.413,0.079-0.773,0.237-1.08c0.157-0.308,0.382-0.541,0.673-0.7c0.291-0.16,0.611-0.239,0.961-0.239
			c0.396,0,0.729,0.101,1,0.303c0.271,0.201,0.459,0.485,0.565,0.852L60.207,7.62c-0.092-0.288-0.226-0.498-0.4-0.63
			c-0.175-0.131-0.395-0.197-0.659-0.197c-0.305,0-0.56,0.073-0.764,0.219c-0.205,0.146-0.349,0.343-0.432,0.589
			S57.828,8.1,57.828,8.361c0,0.337,0.049,0.631,0.147,0.883c0.098,0.251,0.251,0.439,0.458,0.563s0.432,0.187,0.673,0.187
			c0.294,0,0.543-0.085,0.746-0.254C60.056,9.57,60.194,9.319,60.266,8.985z"/>
		<path fill="#414042" d="M61.277,8.445c0-0.658,0.177-1.173,0.53-1.545c0.353-0.372,0.809-0.559,1.367-0.559
			c0.366,0,0.696,0.087,0.99,0.262c0.293,0.176,0.518,0.419,0.672,0.731c0.153,0.313,0.23,0.668,0.23,1.064
			c0,0.401-0.081,0.761-0.243,1.078s-0.392,0.558-0.689,0.721c-0.297,0.163-0.618,0.244-0.962,0.244c-0.373,0-0.707-0.09-1.001-0.27
			c-0.293-0.181-0.516-0.427-0.667-0.738S61.277,8.793,61.277,8.445z M61.818,8.453c0,0.478,0.128,0.854,0.385,1.129
			c0.257,0.274,0.579,0.412,0.967,0.412c0.395,0,0.72-0.139,0.975-0.416c0.255-0.278,0.383-0.672,0.383-1.182
			c0-0.322-0.055-0.604-0.164-0.845c-0.109-0.241-0.269-0.428-0.479-0.56c-0.21-0.133-0.445-0.199-0.707-0.199
			c-0.371,0-0.69,0.128-0.958,0.383S61.818,7.856,61.818,8.453z"/>
		<path fill="#414042" d="M65.738,10.375V6.412h0.538l2.081,3.111V6.412h0.503v3.963h-0.538l-2.081-3.114v3.114H65.738z"/>
		<path fill="#414042" d="M69.768,10.375V6.412h2.674V6.88h-2.149v1.228h1.86v0.468h-1.86v1.8H69.768z"/>
		<path fill="#414042" d="M73.214,10.375V6.412h0.524v3.963H73.214z"/>
		<path fill="#414042" d="M74.227,10.375l1.521-3.963h0.565l1.622,3.963h-0.598l-0.462-1.2h-1.657l-0.436,1.2H74.227z M75.371,8.748
			h1.344L76.3,7.65c-0.126-0.334-0.22-0.607-0.281-0.822c-0.051,0.254-0.122,0.507-0.214,0.757L75.371,8.748z"/>
		<path fill="#414042" d="M78.349,10.375V6.412h0.538l2.081,3.111V6.412h0.503v3.963h-0.538l-2.081-3.114v3.114H78.349z"/>
		<path fill="#414042" d="M82.036,10.375V9.889l2.03-2.538c0.145-0.181,0.281-0.338,0.411-0.471h-2.211V6.412h2.839V6.88
			L82.88,9.629l-0.24,0.278h2.53v0.468H82.036z"/>
		<path fill="#414042" d="M85.3,10.375l1.521-3.963h0.565l1.622,3.963h-0.598l-0.462-1.2h-1.657l-0.436,1.2H85.3z M86.444,8.748
			h1.344L87.374,7.65c-0.126-0.334-0.22-0.607-0.281-0.822c-0.051,0.254-0.122,0.507-0.214,0.757L86.444,8.748z"/>
	</g>
	<g>
		<path fill="#414042" d="M61.386,15.406v-3.963h2.866v0.468h-2.341v1.214h2.192v0.465h-2.192v1.349h2.433v0.468H61.386z"/>
		<path fill="#414042" d="M65.063,15.406v-3.963h0.538l2.081,3.111v-3.111h0.503v3.963h-0.538l-2.081-3.114v3.114H65.063z"/>
		<path fill="#414042" d="M70.584,15.406v-3.963h0.524v3.495h1.952v0.468H70.584z"/>
		<path fill="#414042" d="M73.774,15.406v-3.963h0.524v3.963H73.774z"/>
		<path fill="#414042" d="M75.217,15.406v-3.963h0.538l2.081,3.111v-3.111h0.503v3.963h-0.538l-2.081-3.114v3.114H75.217z"/>
		<path fill="#414042" d="M79.231,15.406v-3.963h2.866v0.468h-2.341v1.214h2.192v0.465h-2.192v1.349h2.433v0.468H79.231z"/>
		<path fill="#414042" d="M82.479,15.406l1.521-3.963h0.565l1.622,3.963h-0.598l-0.462-1.2h-1.657l-0.436,1.2H82.479z
			 M83.623,13.779h1.344l-0.414-1.098c-0.126-0.334-0.22-0.607-0.281-0.822c-0.051,0.254-0.122,0.507-0.214,0.757L83.623,13.779z"/>
	</g>
</g>
</svg>
